<svg xmlns="http://www.w3.org/2000/svg" viewBox="0 0 100 100">
  <defs>
    <radialGradient id="olive" cx="38%" cy="38%" r="68%">
      <stop offset="0%" stop-color="#A8C18C"/>
      <stop offset="55%" stop-color="#7A9362"/>
      <stop offset="100%" stop-color="#3F5530"/>
    </radialGradient>
    <linearGradient id="leaf" x1="0%" y1="0%" x2="100%" y2="100%">
      <stop offset="0%" stop-color="#7A9362"/>
      <stop offset="100%" stop-color="#3F5530"/>
    </linearGradient>
  </defs>

  <!-- back leaf -->
  <path d="M52 28 C66 14 86 16 90 28 C84 36 66 36 52 30 Z" fill="url(#leaf)"/>
  <!-- front leaf -->
  <path d="M48 28 C34 14 14 16 10 28 C16 36 34 36 48 30 Z" fill="url(#leaf)"/>
  <!-- stem -->
  <rect x="48.5" y="26" width="3" height="10" rx="1" fill="#3F5530"/>

  <!-- olive body -->
  <ellipse cx="50" cy="62" rx="28" ry="30" fill="url(#olive)"/>
  <!-- shine highlight -->
  <ellipse cx="40" cy="52" rx="5.5" ry="11" fill="#FFFFFF" opacity="0.32"/>
  <ellipse cx="40" cy="51" rx="2.5" ry="6" fill="#FFFFFF" opacity="0.55"/>

  <!-- pimento (the classic red center) -->
  <circle cx="62" cy="68" r="6.5" fill="#0F0F0E"/>
  <circle cx="63" cy="68.5" r="4.5" fill="#B83D2E"/>
  <circle cx="62" cy="67.5" r="1.4" fill="#E8A28E" opacity="0.65"/>
</svg>
